<svg
t="1605276848735"
viewBox="0 0 1024 1024"
version="1.1"
xmlns="http://www.w3.org/2000/svg"
p-id="908"
width="80"
height="80"
>
<path
  d="M623.062352 0.383856H188.537299C136.844683 0.383856 93.852805 41.84031 93.852805 93.532925v837.318006c0 50.668999 41.968262 93.149069 93.149069 93.149069h666.885918c51.692615 0 93.149069-42.48007 93.149069-94.172685V324.358366c0-11.259778-4.606273-22.007747-12.283394-30.196677l-281.494439-281.494439C645.070099 4.990129 634.322129 0.383856 623.062352 0.383856z m-17.913283 85.471948l256.415844 256.415844v587.555667c0 5.118081-3.582657 8.700737-7.677121 8.700737H187.001874c-4.094465 0-7.677121-3.582657-7.677121-7.677121V93.532925c0-4.094465 4.094465-7.677121 9.212546-7.677121h416.61177z"
  fill="#1296db"
  p-id="909"
></path>
<path
  d="M580.070474 42.863926v281.49444c0 23.543171 18.936899 42.48007 42.48007 42.48007h281.494439c23.543171 0 42.48007-18.936899 42.48007-42.48007 0-11.259778-4.606273-22.007747-12.283394-30.196677l-281.494439-281.494439c-16.889666-16.889666-43.503686-16.889666-60.393353 0-7.677121 8.188929-12.283394 18.936899-12.283393 30.196676zM665.542422 146.249157L801.171561 281.878296H665.542422V146.249157z m34.29114 331.65163c23.543171 0 42.48007 18.936899 42.48007 42.48007 0 20.472323-14.842434 38.385605-34.802949 41.968262l-7.677121 0.511808h-358.26565c-23.543171 0-42.48007-18.936899-42.48007-42.48007 0-20.472323 14.842434-38.385605 34.802949-41.968262l7.677121-0.511808h358.26565z m-102.361614 204.723229c23.543171 0 42.48007 18.936899 42.48007 42.48007 0 20.472323-14.842434 38.385605-34.802949 41.968262l-7.677121 0.511808h-255.904036c-23.543171 0-42.48007-18.936899-42.48007-42.48007 0-20.472323 14.842434-38.385605 34.802949-41.968262l7.677121-0.511808h255.904036z"
  fill="#1296db"
  p-id="910"
></path>
</svg>