<svg t="1677834090876" class="icon" viewBox="0 0 1024 1024" version="1.1" xmlns="http://www.w3.org/2000/svg" p-id="6538" width="200" height="200"><path d="M128 458.432V896h768V416H380.768c9.984-9.792 19.072-20.48 27.072-32H896V288H575.2L452.8 128h-44.928a225.184 225.184 0 0 0-27.072-32h72a32 32 0 0 1 25.408 12.544L517.536 160H896a32 32 0 0 1 32 32v704a32 32 0 0 1-32 32H128a32 32 0 0 1-32-32V439.84c10.08 7.04 20.8 13.28 32 18.592zM542.048 192l48.96 64H896V192H542.048zM192 350.88a111.424 111.424 0 0 1-51.072-21.184l-46.08 46.08-22.624-22.624 46.08-46.08A111.424 111.424 0 0 1 97.12 256H32V224h65.12a111.424 111.424 0 0 1 21.184-51.072l-46.08-46.08 22.624-22.624 46.08 46.08A111.424 111.424 0 0 1 192 129.12V64h32v65.12a111.424 111.424 0 0 1 51.072 21.184l46.08-46.08 22.624 22.624-46.08 46.08c10.976 14.656 18.464 32.096 21.184 51.072H384v32H318.88a111.424 111.424 0 0 1-21.184 51.072l46.08 46.08-22.624 22.624-46.08-46.08A111.424 111.424 0 0 1 224 350.88V416H192v-65.12zM208 320a80 80 0 1 0 0-160 80 80 0 0 0 0 160z" fill="#8a8a8a" p-id="6539"></path></svg>