<svg t="1677332601050" class="icon" viewBox="0 0 1024 1024" version="1.1" xmlns="http://www.w3.org/2000/svg" p-id="1936" width="200" height="200"><path d="M70.442667 386.090667l-1.92-0.810667a42.453333 42.453333 0 0 1-1.962667-0.853333L65.706667 384a42.368 42.368 0 0 1-8.704-6.016l-0.341334-0.341333a42.922667 42.922667 0 0 1-2.901333-2.901334l3.242667 3.242667a43.050667 43.050667 0 0 1-14.08-26.922667L42.666667 346.026667V156.458667a42.666667 42.666667 0 0 1 85.034666-4.992L128 156.458667v78.762666l6.314667-6.826666 22.314666-23.936 18.346667-19.114667 5.12-5.205333A467.882667 467.882667 0 0 1 512 42.666667c259.2 0 469.333333 210.133333 469.333333 469.333333s-210.133333 469.333333-469.333333 469.333333c-126.122667 0-244.48-50.048-331.861333-137.472a42.666667 42.666667 0 0 1 60.330666-60.330666A382.592 382.592 0 0 0 512 896a384 384 0 0 0 0-768c-103.253333 0-199.936 40.874667-271.530667 112.469333l-15.872 16.341334-27.733333 29.610666-15.616 16.981334h93.696a42.666667 42.666667 0 0 1 42.410667 37.674666l0.256 4.992a42.666667 42.666667 0 0 1-37.674667 42.368l-4.992 0.298667H85.333333a42.794667 42.794667 0 0 1-14.378666-2.474667l-0.512-0.170666z" fill="#1777ff" p-id="1937"></path></svg>