<svg width="16" height="70" viewBox="0 0 16 70" fill="none" xmlns="http://www.w3.org/2000/svg">
  <g clip-path="url(#clip0_1841_121668)">
  <g filter="url(#filter0_dd_1841_121668)">
  <path d="M-6.5 4.41969C-6.5 2.89004 -4.85269 1.92661 -3.51948 2.67654L8.48052 9.42654C9.11028 9.78078 9.5 10.4471 9.5 11.1697V58.8915C9.5 59.5811 9.14476 60.222 8.56 60.5875L-3.44 68.0875C-4.7721 68.9201 -6.5 67.9624 -6.5 66.3915V4.41969Z" fill="white"/>
  </g>
  <path d="M0.40238 28.4039C0.806863 28.5216 5.84734 34.4514 5.84734 34.4514C5.89564 34.5027 5.93471 34.5682 5.96158 34.6431C5.98845 34.718 6.00242 34.8003 6.00242 34.8836C6.00242 34.9669 5.98845 35.0492 5.96158 35.1241C5.93471 35.199 5.89564 35.2645 5.84734 35.3158L0.40238 41.3638C0.336835 41.4341 0.0257518 41.4074 0.0124073 41.2462C-0.00752621 40.8837 0.00242078 39.8237 0.00242078 39.8237C0.00242078 39.7237 0.19326 39.4951 0.24242 39.4437L4.32242 34.8836L0.10238 30.0438C0.0544815 29.9923 0.00242078 29.8878 0.00242078 29.8038V28.6037C0.00243967 28.3943 0.239782 28.3566 0.40238 28.4039Z" fill="#929496"/>
  </g>
  <defs>
  <filter id="filter0_dd_1841_121668" x="-18.5" y="-8.58322" width="40" height="89.9779" filterUnits="userSpaceOnUse" color-interpolation-filters="sRGB">
  <feFlood flood-opacity="0" result="BackgroundImageFix"/>
  <feColorMatrix in="SourceAlpha" type="matrix" values="0 0 0 0 0 0 0 0 0 0 0 0 0 0 0 0 0 0 127 0" result="hardAlpha"/>
  <feOffset dy="1"/>
  <feGaussianBlur stdDeviation="6"/>
  <feColorMatrix type="matrix" values="0 0 0 0 0 0 0 0 0 0 0 0 0 0 0 0 0 0 0.08 0"/>
  <feBlend mode="normal" in2="BackgroundImageFix" result="effect1_dropShadow_1841_121668"/>
  <feColorMatrix in="SourceAlpha" type="matrix" values="0 0 0 0 0 0 0 0 0 0 0 0 0 0 0 0 0 0 127 0" result="hardAlpha"/>
  <feOffset/>
  <feGaussianBlur stdDeviation="1"/>
  <feColorMatrix type="matrix" values="0 0 0 0 0 0 0 0 0 0 0 0 0 0 0 0 0 0 0.04 0"/>
  <feBlend mode="normal" in2="effect1_dropShadow_1841_121668" result="effect2_dropShadow_1841_121668"/>
  <feBlend mode="normal" in="SourceGraphic" in2="effect2_dropShadow_1841_121668" result="shape"/>
  </filter>
  <clipPath id="clip0_1841_121668">
  <rect width="16" height="70" fill="white"/>
  </clipPath>
  </defs>
  </svg>